PathFileType	4	(X/Y/Z)	Patient4_TMGait_0pt6_02_right_29.trc.trc
DataRate	CameraRate	NumFrames	NumMarkers	Units	OrigDataRate	OrigDataStartFrame	OrigNumFrames
81.395348837209	81.395348837209	4	33	mm	81.395348837209	124	       141
Frame#	Time	Sacral			L.Shoulder			Chest			R.Shoulder			Neck			R.ASIS			L.ASIS			R.Thigh.Superior			R.Thigh.Lateral			R.Thigh.Inferior			R.Patella			L.Thigh.Superior			L.Thigh.Lateral			L.Thigh.Inferior			L.Patella			L.Shank.Superior			L.Shank.Lateral			L.Shank.Inferior			R.Shank.Superior			R.Shank.Lateral			R.Shank.Inferior			R.Heel			R.Midfoot.Superior			R.Midfoot.Lateral			R.Toe			L.Heel			L.Midfoot.Lateral			L.Midfoot.Superior			L.Toe			L.Elbow			L.Wrist			R.Elbow			R.Wrist			
		X1	Y1	Z1	X2	Y2	Z2	X3	Y3	Z3	X4	Y4	Z4	X5	Y5	Z5	X6	Y6	Z6	X7	Y7	Z7	X8	Y8	Z8	X9	Y9	Z9	X10	Y10	Z10	X11	Y11	Z11	X12	Y12	Z12	X13	Y13	Z13	X14	Y14	Z14	X15	Y15	Z15	X16	Y16	Z16	X17	Y17	Z17	X18	Y18	Z18	X19	Y19	Z19	X20	Y20	Z20	X21	Y21	Z21	X22	Y22	Z22	X23	Y23	Z23	X24	Y24	Z24	X25	Y25	Z25	X26	Y26	Z26	X27	Y27	Z27	X28	Y28	Z28	X29	Y29	Z29	X30	Y30	Z30	X31	Y31	Z31	X32	Y32	Z32	X33	Y33	Z33	

124	36.391142857143	874.912140427684	1003.978170529862	441.519598952982	1087.835523818828	1408.801338887648	245.627616491066	1174.950592061470	1343.856176092313	415.551373887288	1086.182959833699	1437.988602481775	576.994528304879	1083.780877369155	1480.143325803493	391.024841664436	1091.324321181666	930.922224057365	572.775167733349	1093.918327470073	947.616913984747	297.470335417151	1160.278530355143	753.778689051424	552.395440619743	1100.210155363434	634.262992044578	617.924921348266	1193.462942488439	595.446465548254	545.324848904800	1217.955256303913	512.475065735041	559.820467860986	1089.586077850849	724.752190962920	324.991895158217	969.588682437463	634.422748799583	262.129362471263	1026.046607789901	538.348726239494	325.522834256815	1010.070214201810	471.011615479340	334.864658481450	973.182856064949	407.271291278247	327.136930705749	866.355818742393	307.995380800881	275.894940882219	898.373624743094	190.360550176403	348.922416165873	1202.496509262315	421.862920410358	569.374540030479	1143.132647739274	308.987801592141	627.533369556089	1212.770380542300	222.476207726648	579.080006911010	1115.082996666654	44.161701633965	546.325493622313	1278.798333180577	110.034961072052	592.480071262020	1195.821034335643	39.902132133180	624.176527412096	1401.128089385445	64.926062482519	623.317381394443	753.373020831031	43.083382339115	390.957183491807	828.653813313351	36.760597817083	312.503269445188	912.636706207664	96.078266301950	339.556401207391	1040.552198828717	40.287392783455	314.144828513865	1111.153028116484	1063.614249238385	119.038277529679	1360.748807150627	1016.868191475260	151.170128509347	924.975318092334	1146.282956361220	714.441923732592	915.159082503510	883.720343174437	735.327113013119	
125	36.403428571429	876.341658934479	1002.960071249424	444.662096627858	1086.205880960268	1408.521692497382	248.349681498032	1174.851656624548	1344.071826102733	417.819895110717	1086.325832478034	1437.475670782212	579.890930556840	1082.726553915123	1479.828799051107	393.869171565813	1093.590579918795	929.702109538796	574.423386617426	1094.553698105060	946.832235807505	299.606013871965	1160.730074746127	750.091067824817	553.880055179969	1097.749919065944	631.817878897776	618.030434592586	1190.386765770839	592.195210448397	545.158891385461	1212.831394107329	508.895160909644	558.730136066339	1090.211019110720	724.036669928264	325.799141516410	969.136266523506	634.193990831968	263.765745370891	1025.790516987892	537.568335316508	326.332886863731	1009.725014735782	469.547707316301	335.448721733041	971.268802775960	406.406048694539	327.884330997183	862.448501895996	309.129070132122	276.846333380622	892.939093573725	190.586636591660	349.069494793899	1197.331223680114	418.294573209174	568.411507144424	1137.416427793636	305.631094364700	626.451278675436	1206.107269740102	218.742091085117	577.360305362436	1106.009969889011	42.552242438782	544.556907790790	1270.778904275047	105.891901614096	589.988296105727	1186.670126711494	37.822761840869	622.591370067513	1392.721158785575	58.891782706080	621.074034402339	746.090651623352	44.722362678928	390.803163941954	821.377695828990	37.407867122942	312.483468628640	905.838549200829	96.307658248398	339.305912786534	1033.220947054800	39.949470415209	314.052787049231	1108.291556873850	1062.318845327362	123.015648318441	1358.290970561236	1017.649482060453	154.881567990851	928.190547825253	1143.982934807127	717.378640409545	922.559922162126	880.899897478716	735.653430255700	
126	36.415714285714	877.543974940956	1002.475755886616	447.670894751449	1084.888422780857	1408.698551952381	251.200044322908	1174.925691734536	1344.533949011359	420.219381082256	1086.730920941369	1437.218220212834	582.906708815088	1082.012189464424	1479.902874108008	396.894546213517	1095.561534720738	929.048444722142	576.131649621704	1095.175304157718	946.444841721574	301.690172117745	1161.013879306449	747.358980252731	555.344329054527	1095.713533273489	630.333912778576	618.427355383967	1187.549815889136	589.953217489294	545.074066901244	1208.058898501904	506.297693162472	557.869117665692	1091.247020410329	723.712782318730	326.812562734470	969.592911968538	633.943289986938	265.519190020411	1026.818223552958	536.918418168461	327.278401885287	1010.740909649654	468.013547843878	336.029973772457	970.462925119827	405.508277013892	328.647558866584	859.409088920553	310.602373876920	277.845172469718	888.041030687610	191.057038031896	349.148402966123	1192.584471304784	415.705584166653	567.749821062034	1132.341883575733	303.305031488951	626.008004776353	1199.878573554395	215.987309460644	576.090886224264	1097.434635638471	41.608080816713	543.456457477065	1263.191502545572	102.767119531139	588.109766899674	1178.082746973397	36.552418959506	621.590451660315	1384.772614720137	54.200738195136	619.294717125269	738.928550278343	47.100047776445	390.583444048351	814.169925644224	38.391194250695	312.425343554950	899.335552316836	96.637072756634	338.912688699799	1025.906826121069	39.603875761416	313.960290402568	1105.003814539670	1061.395871351032	127.208369831196	1355.239692719559	1017.322067223810	158.483096477454	932.348639375853	1141.518811702900	720.516015794629	931.075006690116	878.004087245636	736.155956513940	
127	36.428000000000	878.497934432744	1002.569184741132	450.522375605567	1083.943465600054	1409.375984125831	254.149130038433	1175.160660195863	1345.249525485951	422.724924296983	1087.395086301124	1437.266406161267	585.993550698809	1081.655748173693	1480.389050039634	400.061740747186	1097.177556990989	928.993948108021	577.943959607061	1095.868515269437	946.615485760726	303.669360947861	1161.125964318362	745.674236401536	556.777899629651	1094.135813109720	629.802351634306	619.151030173757	1184.975994045225	588.671744557438	545.151069312529	1203.638672546532	504.634845816602	557.363930102448	1092.681079952823	723.829808761620	328.069559313335	971.034921328116	633.677086071631	267.344110665511	1029.245593311177	536.427049278950	328.317280011739	1013.233890088369	466.441203244734	336.520701449602	970.876205109509	404.611533976413	329.354522444899	857.353967292786	312.480665794845	278.839001915879	883.782197303825	191.852200932911	349.105630159238	1188.211411336850	414.045731022562	567.456443961968	1127.803921056485	301.955445581971	626.196121908431	1194.013543273877	214.164456913172	575.299421912254	1089.368081153513	41.209246533011	542.937298956315	1255.984988558223	100.627084813766	586.871433221067	1170.048620871655	35.948545008545	621.107769332088	1377.240355874155	50.873767963157	618.036027095202	731.963984313756	50.393177891213	390.277588743864	807.074779544228	39.820731077597	312.315837565841	893.207156427935	97.098724284716	338.345392277612	1018.616022586959	39.265688720825	313.876971940007	1101.273053764475	1060.939973755975	131.599681413273	1351.565093589609	1015.900276701596	161.958919276581	937.357158599312	1139.033156305773	723.803045740168	940.698070166906	875.210164305674	736.851645217020	
